<svg width="27" height="30" viewBox="0 0 27 30" fill="none" xmlns="http://www.w3.org/2000/svg">
<mask id="path-1-outside-1_2_4" maskUnits="userSpaceOnUse" x="-1" y="-1" width="29" height="32" fill="black">
<rect fill="white" x="-1" y="-1" width="29" height="32"/>
<path d="M0.615412 30L5.44496 0.90909H26.4109L25.3313 7.27273H12.2631L11.4677 12.2727H23.4563L22.3768 18.6364H10.3881L9.59268 23.6364H22.604L21.5245 30H0.615412Z"/>
</mask>
<path d="M0.615412 30L5.44496 0.90909H26.4109L25.3313 7.27273H12.2631L11.4677 12.2727H23.4563L22.3768 18.6364H10.3881L9.59268 23.6364H22.604L21.5245 30H0.615412Z" fill="#91B542"/>
<path d="M0.615412 30L-0.371086 29.8362L-0.564291 31H0.615412V30ZM5.44496 0.90909V-0.09091H4.59729L4.45846 0.745316L5.44496 0.90909ZM26.4109 0.90909L27.3968 1.07634L27.5948 -0.09091H26.4109V0.90909ZM25.3313 7.27273V8.27273H26.176L26.3172 7.43998L25.3313 7.27273ZM12.2631 7.27273V6.27273H11.4097L11.2756 7.11561L12.2631 7.27273ZM11.4677 12.2727L10.4801 12.1156L10.296 13.2727H11.4677V12.2727ZM23.4563 12.2727L24.4422 12.44L24.6403 11.2727H23.4563V12.2727ZM22.3768 18.6364V19.6364H23.2214L23.3627 18.8036L22.3768 18.6364ZM10.3881 18.6364V17.6364H9.53465L9.40056 18.4792L10.3881 18.6364ZM9.59268 23.6364L8.6051 23.4792L8.42102 24.6364H9.59268V23.6364ZM22.604 23.6364L23.59 23.8036L23.788 22.6364H22.604V23.6364ZM21.5245 30V31H22.3691L22.5104 30.1673L21.5245 30ZM1.60191 30.1638L6.43146 1.07286L4.45846 0.745316L-0.371086 29.8362L1.60191 30.1638ZM5.44496 1.90909H26.4109V-0.09091H5.44496V1.90909ZM25.425 0.741837L24.3454 7.10547L26.3172 7.43998L27.3968 1.07634L25.425 0.741837ZM25.3313 6.27273H12.2631V8.27273H25.3313V6.27273ZM11.2756 7.11561L10.4801 12.1156L12.4553 12.4298L13.2507 7.42984L11.2756 7.11561ZM11.4677 13.2727H23.4563V11.2727H11.4677V13.2727ZM22.4704 12.1055L21.3909 18.4691L23.3627 18.8036L24.4422 12.44L22.4704 12.1055ZM22.3768 17.6364H10.3881V19.6364H22.3768V17.6364ZM9.40056 18.4792L8.6051 23.4792L10.5803 23.7935L11.3757 18.7935L9.40056 18.4792ZM9.59268 24.6364H22.604V22.6364H9.59268V24.6364ZM21.6181 23.4691L20.5386 29.8327L22.5104 30.1673L23.59 23.8036L21.6181 23.4691ZM21.5245 29H0.615412V31H21.5245V29Z" fill="black" mask="url(#path-1-outside-1_2_4)"/>
</svg>
